<?xml version="1.0" encoding="UTF-8" standalone="no"?>
<!DOCTYPE svg PUBLIC "-//W3C//DTD SVG 1.1//EN"
 "http://www.w3.org/Graphics/SVG/1.1/DTD/svg11.dtd">
<!-- Generated by graphviz version 2.26.3 (20100126.1600)
 -->
<!-- Title: G Pages: 1 -->
<svg width="596pt" height="492pt"
 viewBox="0.00 0.00 596.00 492.00" xmlns="http://www.w3.org/2000/svg" xmlns:xlink="http://www.w3.org/1999/xlink">
<g id="graph1" class="graph" transform="scale(1 1) rotate(0) translate(4 488)">
<title>G</title>
<polygon fill="white" stroke="white" points="-4,5 -4,-488 593,-488 593,5 -4,5"/>
<g id="graph2" class="cluster"><title>cluster_Global</title>
<polyline fill="none" stroke="gray" points="410,-8 568,-8 "/>
<path fill="none" stroke="gray" d="M568,-8C574,-8 580,-14 580,-20"/>
<polyline fill="none" stroke="gray" points="580,-20 580,-448 "/>
<path fill="none" stroke="gray" d="M580,-448C580,-454 574,-460 568,-460"/>
<polyline fill="none" stroke="gray" points="568,-460 410,-460 "/>
<path fill="none" stroke="gray" d="M410,-460C404,-460 398,-454 398,-448"/>
<polyline fill="none" stroke="gray" points="398,-448 398,-20 "/>
<path fill="none" stroke="gray" d="M398,-20C398,-14 404,-8 410,-8"/>
<text text-anchor="middle" x="489" y="-446.1" font-family="Times Roman,serif" font-size="11.00" fill="gray">Global</text>
</g>
<!-- \\TreeHelper -->
<g id="node2" class="node"><title>\\TreeHelper</title>
<polygon fill="none" stroke="black" points="531,-430 447,-430 447,-394 531,-394 531,-430"/>
<text text-anchor="middle" x="489" y="-409.1" font-family="Courier,monospace" font-size="11.00">TreeHelper</text>
</g>
<!-- \\AppHelper -->
<g id="node11" class="node"><title>\\AppHelper</title>
<ellipse fill="none" stroke="black" cx="167" cy="-466" rx="65.0538" ry="18.3848"/>
<text text-anchor="middle" x="167" y="-462.4" font-family="Times Roman,serif" font-size="14.00" fill="gray">\AppHelper</text>
</g>
<!-- \\TreeHelper&#45;&gt;\\AppHelper -->
<g id="edge3" class="edge"><title>\\TreeHelper&#45;&gt;\\AppHelper</title>
<path fill="none" stroke="black" d="M446.92,-419.473C415.758,-424.972 372.252,-432.576 334,-439 300.952,-444.55 264.188,-450.516 233.585,-455.425"/>
<polygon fill="none" stroke="black" points="232.778,-452.01 223.458,-457.047 233.885,-458.922 232.778,-452.01"/>
</g>
<!-- \\TreeCollection -->
<g id="node3" class="node"><title>\\TreeCollection</title>
<polygon fill="none" stroke="black" points="544,-376 434,-376 434,-340 544,-340 544,-376"/>
<text text-anchor="middle" x="489" y="-355.1" font-family="Courier,monospace" font-size="11.00">TreeCollection</text>
</g>
<!-- \\IteratorAggregate -->
<g id="node13" class="node"><title>\\IteratorAggregate</title>
<ellipse fill="none" stroke="black" cx="167" cy="-412" rx="103.238" ry="18.3848"/>
<text text-anchor="middle" x="167" y="-408.4" font-family="Times Roman,serif" font-size="14.00" fill="gray">\IteratorAggregate</text>
</g>
<!-- \\TreeCollection&#45;&gt;\\IteratorAggregate -->
<g id="edge5" class="edge"><title>\\TreeCollection&#45;&gt;\\IteratorAggregate</title>
<path fill="none" stroke="black" stroke-dasharray="1,5" d="M433.43,-367.849C403.908,-373.038 366.999,-379.459 334,-385 307.919,-389.38 279.523,-394.019 253.669,-398.193"/>
<polygon fill="none" stroke="black" points="252.834,-394.783 243.518,-399.829 253.948,-401.693 252.834,-394.783"/>
</g>
<!-- \\Countable -->
<g id="node15" class="node"><title>\\Countable</title>
<ellipse fill="none" stroke="black" cx="167" cy="-358" rx="65.0538" ry="18.3848"/>
<text text-anchor="middle" x="167" y="-354.4" font-family="Times Roman,serif" font-size="14.00" fill="gray">\Countable</text>
</g>
<!-- \\TreeCollection&#45;&gt;\\Countable -->
<g id="edge7" class="edge"><title>\\TreeCollection&#45;&gt;\\Countable</title>
<path fill="none" stroke="black" stroke-dasharray="1,5" d="M433.279,-358C380.47,-358 300.749,-358 242.299,-358"/>
<polygon fill="none" stroke="black" points="242.011,-354.5 232.011,-358 242.011,-361.5 242.011,-354.5"/>
</g>
<!-- \\JsonSerializable -->
<g id="node17" class="node"><title>\\JsonSerializable</title>
<ellipse fill="none" stroke="black" cx="167" cy="-304" rx="91.2168" ry="18.3848"/>
<text text-anchor="middle" x="167" y="-300.4" font-family="Times Roman,serif" font-size="14.00" fill="gray">\JsonSerializable</text>
</g>
<!-- \\TreeCollection&#45;&gt;\\JsonSerializable -->
<g id="edge9" class="edge"><title>\\TreeCollection&#45;&gt;\\JsonSerializable</title>
<path fill="none" stroke="black" stroke-dasharray="1,5" d="M433.43,-348.151C403.908,-342.962 366.999,-336.541 334,-331 306.011,-326.3 275.357,-321.301 248.039,-316.899"/>
<polygon fill="none" stroke="black" points="248.565,-313.438 238.136,-315.305 247.453,-320.349 248.565,-313.438"/>
</g>
<!-- \\TreeCollectionNode -->
<g id="node4" class="node"><title>\\TreeCollectionNode</title>
<polygon fill="none" stroke="black" points="558,-322 420,-322 420,-286 558,-286 558,-322"/>
<text text-anchor="middle" x="489" y="-301.1" font-family="Courier,monospace" font-size="11.00">TreeCollectionNode</text>
</g>
<!-- \\TreeCollectionNode&#45;&gt;\\JsonSerializable -->
<g id="edge11" class="edge"><title>\\TreeCollectionNode&#45;&gt;\\JsonSerializable</title>
<path fill="none" stroke="black" stroke-dasharray="1,5" d="M419.923,-304C375.751,-304 317.697,-304 268.35,-304"/>
<polygon fill="none" stroke="black" points="268.283,-300.5 258.282,-304 268.282,-307.5 268.283,-300.5"/>
</g>
<!-- \\AllTreeHelperTest -->
<g id="node5" class="node"><title>\\AllTreeHelperTest</title>
<polygon fill="none" stroke="black" points="554,-268 424,-268 424,-232 554,-232 554,-268"/>
<text text-anchor="middle" x="489" y="-247.1" font-family="Courier,monospace" font-size="11.00">AllTreeHelperTest</text>
</g>
<!-- \\PHPUnit_Framework_TestSuite -->
<g id="node20" class="node"><title>\\PHPUnit_Framework_TestSuite</title>
<ellipse fill="none" stroke="black" cx="167" cy="-250" rx="166.877" ry="18.3848"/>
<text text-anchor="middle" x="167" y="-246.4" font-family="Times Roman,serif" font-size="14.00" fill="gray">\PHPUnit_Framework_TestSuite</text>
</g>
<!-- \\AllTreeHelperTest&#45;&gt;\\PHPUnit_Framework_TestSuite -->
<g id="edge13" class="edge"><title>\\AllTreeHelperTest&#45;&gt;\\PHPUnit_Framework_TestSuite</title>
<path fill="none" stroke="black" d="M423.45,-250C400.093,-250 372.541,-250 344.312,-250"/>
<polygon fill="none" stroke="black" points="344.305,-246.5 334.305,-250 344.305,-253.5 344.305,-246.5"/>
</g>
<!-- \\TreeHelperTest -->
<g id="node6" class="node"><title>\\TreeHelperTest</title>
<polygon fill="none" stroke="black" points="544,-214 434,-214 434,-178 544,-178 544,-214"/>
<text text-anchor="middle" x="489" y="-193.1" font-family="Courier,monospace" font-size="11.00">TreeHelperTest</text>
</g>
<!-- \\CakeTestCase -->
<g id="node22" class="node"><title>\\CakeTestCase</title>
<ellipse fill="none" stroke="black" cx="167" cy="-88" rx="82.0244" ry="18.3848"/>
<text text-anchor="middle" x="167" y="-84.4" font-family="Times Roman,serif" font-size="14.00" fill="gray">\CakeTestCase</text>
</g>
<!-- \\TreeHelperTest&#45;&gt;\\CakeTestCase -->
<g id="edge15" class="edge"><title>\\TreeHelperTest&#45;&gt;\\CakeTestCase</title>
<path fill="none" stroke="black" d="M433.042,-179.865C421.427,-176.385 409.289,-172.652 398,-169 336.089,-148.974 265.605,-123.929 218.948,-107.031"/>
<polygon fill="none" stroke="black" points="219.959,-103.675 209.365,-103.554 217.571,-110.255 219.959,-103.675"/>
</g>
<!-- \\TreeHelperTestObject -->
<g id="node7" class="node"><title>\\TreeHelperTestObject</title>
<polygon fill="none" stroke="black" points="565,-160 413,-160 413,-124 565,-124 565,-160"/>
<text text-anchor="middle" x="489" y="-139.1" font-family="Courier,monospace" font-size="11.00">TreeHelperTestObject</text>
</g>
<!-- \\TreeCollectionTest -->
<g id="node8" class="node"><title>\\TreeCollectionTest</title>
<polygon fill="none" stroke="black" points="558,-106 420,-106 420,-70 558,-70 558,-106"/>
<text text-anchor="middle" x="489" y="-85.1" font-family="Courier,monospace" font-size="11.00">TreeCollectionTest</text>
</g>
<!-- \\TreeCollectionTest&#45;&gt;\\CakeTestCase -->
<g id="edge17" class="edge"><title>\\TreeCollectionTest&#45;&gt;\\CakeTestCase</title>
<path fill="none" stroke="black" d="M419.923,-88C372.974,-88 310.341,-88 259.15,-88"/>
<polygon fill="none" stroke="black" points="259.073,-84.5001 249.073,-88 259.073,-91.5001 259.073,-84.5001"/>
</g>
<!-- \\TreeCollectionNodeTest -->
<g id="node9" class="node"><title>\\TreeCollectionNodeTest</title>
<polygon fill="none" stroke="black" points="571,-52 407,-52 407,-16 571,-16 571,-52"/>
<text text-anchor="middle" x="489" y="-31.1" font-family="Courier,monospace" font-size="11.00">TreeCollectionNodeTest</text>
</g>
<!-- \\TreeCollectionNodeTest&#45;&gt;\\CakeTestCase -->
<g id="edge19" class="edge"><title>\\TreeCollectionNodeTest&#45;&gt;\\CakeTestCase</title>
<path fill="none" stroke="black" d="M406.495,-47.8362C355.853,-56.3289 291.493,-67.1222 242.248,-75.3808"/>
<polygon fill="none" stroke="black" points="241.578,-71.9442 232.294,-77.05 242.736,-78.8478 241.578,-71.9442"/>
</g>
</g>
</svg>
