<?xml version="1.0" encoding="UTF-8" standalone="no"?>
<!DOCTYPE svg PUBLIC "-//W3C//DTD SVG 1.1//EN"
 "http://www.w3.org/Graphics/SVG/1.1/DTD/svg11.dtd">
<!-- Generated by graphviz version 2.26.3 (20100126.1600)
 -->
<!-- Title: G Pages: 1 -->
<svg width="596pt" height="492pt"
 viewBox="0.00 0.00 596.00 492.00" xmlns="http://www.w3.org/2000/svg" xmlns:xlink="http://www.w3.org/1999/xlink">
<g id="graph1" class="graph" transform="scale(1 1) rotate(0) translate(4 488)">
<title>G</title>
<polygon fill="white" stroke="white" points="-4,5 -4,-488 593,-488 593,5 -4,5"/>
<g id="graph2" class="cluster"><title>cluster_Global</title>
<polyline fill="none" stroke="gray" points="410,-8 568,-8 "/>
<path fill="none" stroke="gray" d="M568,-8C574,-8 580,-14 580,-20"/>
<polyline fill="none" stroke="gray" points="580,-20 580,-448 "/>
<path fill="none" stroke="gray" d="M580,-448C580,-454 574,-460 568,-460"/>
<polyline fill="none" stroke="gray" points="568,-460 410,-460 "/>
<path fill="none" stroke="gray" d="M410,-460C404,-460 398,-454 398,-448"/>
<polyline fill="none" stroke="gray" points="398,-448 398,-20 "/>
<path fill="none" stroke="gray" d="M398,-20C398,-14 404,-8 410,-8"/>
<text text-anchor="middle" x="489" y="-446.1" font-family="Times Roman,serif" font-size="11.00" fill="gray">Global</text>
</g>
<!-- \\TreeCollection -->
<g id="node2" class="node"><title>\\TreeCollection</title>
<polygon fill="none" stroke="black" points="544,-430 434,-430 434,-394 544,-394 544,-430"/>
<text text-anchor="middle" x="489" y="-409.1" font-family="Courier,monospace" font-size="11.00">TreeCollection</text>
</g>
<!-- \\IteratorAggregate -->
<g id="node11" class="node"><title>\\IteratorAggregate</title>
<ellipse fill="none" stroke="black" cx="167" cy="-466" rx="103.238" ry="18.3848"/>
<text text-anchor="middle" x="167" y="-462.4" font-family="Times Roman,serif" font-size="14.00" fill="gray">\IteratorAggregate</text>
</g>
<!-- \\TreeCollection&#45;&gt;\\IteratorAggregate -->
<g id="edge3" class="edge"><title>\\TreeCollection&#45;&gt;\\IteratorAggregate</title>
<path fill="none" stroke="black" stroke-dasharray="1,5" d="M433.43,-421.849C403.908,-427.038 366.999,-433.459 334,-439 307.919,-443.38 279.523,-448.019 253.669,-452.193"/>
<polygon fill="none" stroke="black" points="252.834,-448.783 243.518,-453.829 253.948,-455.693 252.834,-448.783"/>
</g>
<!-- \\Countable -->
<g id="node13" class="node"><title>\\Countable</title>
<ellipse fill="none" stroke="black" cx="167" cy="-412" rx="65.0538" ry="18.3848"/>
<text text-anchor="middle" x="167" y="-408.4" font-family="Times Roman,serif" font-size="14.00" fill="gray">\Countable</text>
</g>
<!-- \\TreeCollection&#45;&gt;\\Countable -->
<g id="edge5" class="edge"><title>\\TreeCollection&#45;&gt;\\Countable</title>
<path fill="none" stroke="black" stroke-dasharray="1,5" d="M433.279,-412C380.47,-412 300.749,-412 242.299,-412"/>
<polygon fill="none" stroke="black" points="242.011,-408.5 232.011,-412 242.011,-415.5 242.011,-408.5"/>
</g>
<!-- \\JsonSerializable -->
<g id="node15" class="node"><title>\\JsonSerializable</title>
<ellipse fill="none" stroke="black" cx="167" cy="-358" rx="91.2168" ry="18.3848"/>
<text text-anchor="middle" x="167" y="-354.4" font-family="Times Roman,serif" font-size="14.00" fill="gray">\JsonSerializable</text>
</g>
<!-- \\TreeCollection&#45;&gt;\\JsonSerializable -->
<g id="edge7" class="edge"><title>\\TreeCollection&#45;&gt;\\JsonSerializable</title>
<path fill="none" stroke="black" stroke-dasharray="1,5" d="M433.43,-402.151C403.908,-396.962 366.999,-390.541 334,-385 306.011,-380.3 275.357,-375.301 248.039,-370.899"/>
<polygon fill="none" stroke="black" points="248.565,-367.438 238.136,-369.305 247.453,-374.349 248.565,-367.438"/>
</g>
<!-- \\TreeCollectionNode -->
<g id="node3" class="node"><title>\\TreeCollectionNode</title>
<polygon fill="none" stroke="black" points="558,-376 420,-376 420,-340 558,-340 558,-376"/>
<text text-anchor="middle" x="489" y="-355.1" font-family="Courier,monospace" font-size="11.00">TreeCollectionNode</text>
</g>
<!-- \\TreeCollectionNode&#45;&gt;\\JsonSerializable -->
<g id="edge9" class="edge"><title>\\TreeCollectionNode&#45;&gt;\\JsonSerializable</title>
<path fill="none" stroke="black" stroke-dasharray="1,5" d="M419.923,-358C375.751,-358 317.697,-358 268.35,-358"/>
<polygon fill="none" stroke="black" points="268.283,-354.5 258.282,-358 268.282,-361.5 268.283,-354.5"/>
</g>
<!-- \\TreeCollectionNodeTest -->
<g id="node4" class="node"><title>\\TreeCollectionNodeTest</title>
<polygon fill="none" stroke="black" points="571,-214 407,-214 407,-178 571,-178 571,-214"/>
<text text-anchor="middle" x="489" y="-193.1" font-family="Courier,monospace" font-size="11.00">TreeCollectionNodeTest</text>
</g>
<!-- \\CakeTestCase -->
<g id="node18" class="node"><title>\\CakeTestCase</title>
<ellipse fill="none" stroke="black" cx="167" cy="-250" rx="82.0244" ry="18.3848"/>
<text text-anchor="middle" x="167" y="-246.4" font-family="Times Roman,serif" font-size="14.00" fill="gray">\CakeTestCase</text>
</g>
<!-- \\TreeCollectionNodeTest&#45;&gt;\\CakeTestCase -->
<g id="edge11" class="edge"><title>\\TreeCollectionNodeTest&#45;&gt;\\CakeTestCase</title>
<path fill="none" stroke="black" d="M406.495,-209.836C355.853,-218.329 291.493,-229.122 242.248,-237.381"/>
<polygon fill="none" stroke="black" points="241.578,-233.944 232.294,-239.05 242.736,-240.848 241.578,-233.944"/>
</g>
<!-- \\TreeCollectionTest -->
<g id="node5" class="node"><title>\\TreeCollectionTest</title>
<polygon fill="none" stroke="black" points="558,-322 420,-322 420,-286 558,-286 558,-322"/>
<text text-anchor="middle" x="489" y="-301.1" font-family="Courier,monospace" font-size="11.00">TreeCollectionTest</text>
</g>
<!-- \\TreeCollectionTest&#45;&gt;\\CakeTestCase -->
<g id="edge13" class="edge"><title>\\TreeCollectionTest&#45;&gt;\\CakeTestCase</title>
<path fill="none" stroke="black" d="M419.923,-292.416C367.755,-283.667 296.222,-271.671 242.54,-262.668"/>
<polygon fill="none" stroke="black" points="242.834,-259.169 232.393,-260.966 241.676,-266.072 242.834,-259.169"/>
</g>
<!-- \\AllTreeHelperTest -->
<g id="node6" class="node"><title>\\AllTreeHelperTest</title>
<polygon fill="none" stroke="black" points="554,-160 424,-160 424,-124 554,-124 554,-160"/>
<text text-anchor="middle" x="489" y="-139.1" font-family="Courier,monospace" font-size="11.00">AllTreeHelperTest</text>
</g>
<!-- \\PHPUnit_Framework_TestSuite -->
<g id="node21" class="node"><title>\\PHPUnit_Framework_TestSuite</title>
<ellipse fill="none" stroke="black" cx="167" cy="-142" rx="166.877" ry="18.3848"/>
<text text-anchor="middle" x="167" y="-138.4" font-family="Times Roman,serif" font-size="14.00" fill="gray">\PHPUnit_Framework_TestSuite</text>
</g>
<!-- \\AllTreeHelperTest&#45;&gt;\\PHPUnit_Framework_TestSuite -->
<g id="edge15" class="edge"><title>\\AllTreeHelperTest&#45;&gt;\\PHPUnit_Framework_TestSuite</title>
<path fill="none" stroke="black" d="M423.45,-142C400.093,-142 372.541,-142 344.312,-142"/>
<polygon fill="none" stroke="black" points="344.305,-138.5 334.305,-142 344.305,-145.5 344.305,-138.5"/>
</g>
<!-- \\TreeHelperTest -->
<g id="node7" class="node"><title>\\TreeHelperTest</title>
<polygon fill="none" stroke="black" points="544,-268 434,-268 434,-232 544,-232 544,-268"/>
<text text-anchor="middle" x="489" y="-247.1" font-family="Courier,monospace" font-size="11.00">TreeHelperTest</text>
</g>
<!-- \\TreeHelperTest&#45;&gt;\\CakeTestCase -->
<g id="edge17" class="edge"><title>\\TreeHelperTest&#45;&gt;\\CakeTestCase</title>
<path fill="none" stroke="black" d="M433.279,-250C385.493,-250 315.673,-250 259.515,-250"/>
<polygon fill="none" stroke="black" points="259.197,-246.5 249.197,-250 259.197,-253.5 259.197,-246.5"/>
</g>
<!-- \\TreeHelperTestObject -->
<g id="node8" class="node"><title>\\TreeHelperTestObject</title>
<polygon fill="none" stroke="black" points="565,-106 413,-106 413,-70 565,-70 565,-106"/>
<text text-anchor="middle" x="489" y="-85.1" font-family="Courier,monospace" font-size="11.00">TreeHelperTestObject</text>
</g>
<!-- \\TreeHelper -->
<g id="node9" class="node"><title>\\TreeHelper</title>
<polygon fill="none" stroke="black" points="531,-52 447,-52 447,-16 531,-16 531,-52"/>
<text text-anchor="middle" x="489" y="-31.1" font-family="Courier,monospace" font-size="11.00">TreeHelper</text>
</g>
<!-- \\AppHelper -->
<g id="node24" class="node"><title>\\AppHelper</title>
<ellipse fill="none" stroke="black" cx="167" cy="-34" rx="65.0538" ry="18.3848"/>
<text text-anchor="middle" x="167" y="-30.4" font-family="Times Roman,serif" font-size="14.00" fill="gray">\AppHelper</text>
</g>
<!-- \\TreeHelper&#45;&gt;\\AppHelper -->
<g id="edge19" class="edge"><title>\\TreeHelper&#45;&gt;\\AppHelper</title>
<path fill="none" stroke="black" d="M446.904,-34C395.042,-34 305.989,-34 242.252,-34"/>
<polygon fill="none" stroke="black" points="242.249,-30.5001 232.249,-34 242.249,-37.5001 242.249,-30.5001"/>
</g>
</g>
</svg>
